<svg width="164" height="160" viewBox="0 0 164 160" fill="none" xmlns="http://www.w3.org/2000/svg">
<path d="M3.07179 54.5501C-1.35993 68.8156 -0.965372 88.4422 4.05459 103.486C10.8094 123.728 27.2959 142.359 46.4656 151.418C51.9603 154.013 61.44 157.098 67.3614 158.216C73.8321 159.437 91.1588 159.263 97.5239 157.911C122.22 152.669 142.743 137.355 154.381 115.487C157.961 108.759 161.327 98.7273 162.565 91.0888C163.65 84.4074 163.916 66.9903 162.909 68.5447C162.575 69.0622 162.294 71.0339 162.288 72.9288C162.255 80.5957 159.134 92.8274 154.976 101.585C144.078 124.531 121.184 141.85 96.4447 145.858C71.1288 149.959 45.7888 142.13 27.5584 124.573C15.8264 113.274 8.05581 99.1915 4.59291 82.9487C3.12664 76.0739 2.75402 61.8822 3.87717 55.7073C4.37841 52.9518 4.70261 50.5996 4.59555 50.4796C4.49039 50.3609 3.80378 52.1929 3.07179 54.5501Z" fill="#000080"/>
<path d="M67.6273 1.50905C60.2128 3.08881 55.0074 4.93451 48.9892 8.11558C19.9944 23.4422 5.4051 56.4809 13.6943 88.0382C20.1745 112.712 40.7075 132.709 65.3954 138.392C75.5889 140.738 89.1992 140.614 98.6566 138.089L103.045 136.918L95.7607 136.861C76.4658 136.712 60.9338 130.441 47.1752 117.245C33.5566 104.182 26.254 86.7172 26.254 67.204C26.254 37.7973 45.266 11.4465 73.3884 1.87599C77.6726 0.418427 77.8069 0.318935 75.4618 0.345416C74.0829 0.361304 70.5565 0.88562 67.627 1.50943L67.6273 1.50905Z" fill="#000080"/>
<path d="M86.9487 2.92122C84.2326 11.3958 85.5369 22.0251 90.5232 32.0465C94.1405 39.3173 98.1262 45.2433 108.297 58.4836C119.722 73.3555 123.531 78.7995 126.591 84.6381C133.603 98.01 134.359 108.493 129.078 119.098C128.106 121.047 126.63 123.562 125.797 124.685L124.282 126.726L125.994 125.623C129.318 123.481 135.442 118.149 139.119 114.194C146.187 106.593 149.514 99.0023 149.481 90.5641C149.442 81.2437 145.102 71.8707 135.301 59.9427C134.38 58.8188 126.072 50.1569 116.842 40.6947C95.6506 18.9666 91.5477 13.5104 89.1224 3.82534C88.617 1.8079 88.1434 0.0877949 88.0692 0.00381352C87.9943 -0.0801678 87.4904 1.23327 86.9491 2.92122H86.9487Z" fill="#000080"/>
<path d="M123.397 93.4289C123.397 97.4449 121.886 104.466 120.289 107.877C118.075 112.605 115.725 115.092 111.458 117.222C107.73 119.082 107.39 119.142 100.699 119.102C91.6184 119.049 85.9807 117.564 69.6743 110.928C67.6849 110.118 70.7967 113.92 75.0355 117.477C82.2768 123.551 90.9662 126.883 100.985 127.425C123.661 128.654 135.13 113.316 125.703 94.3689C124.742 92.437 123.829 90.8553 123.675 90.8553C123.522 90.8553 123.397 92.0126 123.397 93.4289Z" fill="#000080"/>
<path d="M157.473 16.4596C150.083 17.725 145.001 19.9396 141.087 23.5996C134.49 29.7688 133.085 37.977 136.371 51.1504L137.682 56.3992L138.382 50.0631C139.506 39.9097 141.987 33.8729 147.638 27.5368C151.151 23.598 154.188 21.3007 160.157 18.0715C163.98 16.0008 164.081 15.8956 162.168 15.9463C161.062 15.9754 158.949 16.2062 157.472 16.4596H157.473Z" fill="#000080"/>
<path d="M136.281 18.9435C136.281 24.7836 131.284 29.5168 125.12 29.5168C118.956 29.5168 113.96 24.7836 113.96 18.9435C113.96 13.1034 118.956 8.37018 125.12 8.37018C131.284 8.37018 136.281 13.1034 136.281 18.9435Z" fill="#000080"/>
</svg>
